replay
version=1
nRows=7
nColumns=40
inDegrees=no
endheader
time	/jointset/ground_pelvis/pelvis_tilt/value	/jointset/ground_pelvis/pelvis_list/value	/jointset/ground_pelvis/pelvis_rotation/value	/jointset/ground_pelvis/pelvis_tx/value	/jointset/ground_pelvis/pelvis_ty/value	/jointset/ground_pelvis/pelvis_tz/value	/jointset/hip_r/hip_flexion_r/value	/jointset/hip_r/hip_adduction_r/value	/jointset/hip_r/hip_rotation_r/value	/jointset/walker_knee_r/knee_angle_r/value	/jointset/patellofemoral_r/knee_angle_r_beta/value	/jointset/ankle_r/ankle_angle_r/value	/jointset/subtalar_r/subtalar_angle_r/value	/jointset/mtp_r/mtp_angle_r/value	/jointset/hip_l/hip_flexion_l/value	/jointset/hip_l/hip_adduction_l/value	/jointset/hip_l/hip_rotation_l/value	/jointset/walker_knee_l/knee_angle_l/value	/jointset/patellofemoral_l/knee_angle_l_beta/value	/jointset/ankle_l/ankle_angle_l/value	/jointset/subtalar_l/subtalar_angle_l/value	/jointset/mtp_l/mtp_angle_l/value	/jointset/back/lumbar_extension/value	/jointset/back/lumbar_bending/value	/jointset/back/lumbar_rotation/value	/jointset/acromial_r/arm_flex_r/value	/jointset/acromial_r/arm_add_r/value	/jointset/acromial_r/arm_rot_r/value	/jointset/elbow_r/elbow_flex_r/value	/jointset/radioulnar_r/pro_sup_r/value	/jointset/radius_hand_r/wrist_flex_r/value	/jointset/radius_hand_r/wrist_dev_r/value	/jointset/acromial_l/arm_flex_l/value	/jointset/acromial_l/arm_add_l/value	/jointset/acromial_l/arm_rot_l/value	/jointset/elbow_l/elbow_flex_l/value	/jointset/radioulnar_l/pro_sup_l/value	/jointset/radius_hand_l/wrist_flex_l/value	/jointset/radius_hand_l/wrist_dev_l/value
0.075	-0.1365240104	-0.1670655568	-0.3133364088	1.170571024	1.058396377	-0.09872614567	0.2273762126	0.1734103012	0.2368237766	0.1516269588	0.1516269588	-0.1259937709	-0.1465307539	3.114294757e-06	0.2072489574	-0.1653596317	-0.1486965049	0.1695434398	0.1695434398	-0.01269720832	-0.1249796752	4.164371415e-06	0.2415868508	0.935595815	-0.8056161081	-0.7016647672	-1.301285637	-0.9670199968	0.5744551437	0.2031418251	0.5029544867	-0.7852451367	0.05753279188	0.6718170869	-0.9993788271	1.642531316	0.1956487714	-7.111064592e-05	5.3228513e-05
0.077777778	-0.1367178315	-0.1671894424	-0.3138468458	1.170655948	1.058125179	-0.0986946997	0.2272292397	0.1733607001	0.2368611525	0.1516256132	0.1516256132	-0.1260216504	-0.1465173412	3.23590705e-06	0.2073446991	-0.1654680892	-0.1485630939	0.169541874	0.169541874	-0.01262487637	-0.1250122313	4.003063618e-06	0.2415002351	0.9360060905	-0.8060162391	-0.7020412304	-1.30157678	-0.9671731424	0.5741971062	0.2025679406	0.5035998172	-0.7852409774	0.05780921805	0.6718429003	-0.9993446887	1.642556335	0.1956651545	-6.020557594e-05	5.62466196e-05
0.080555556	-0.1369139227	-0.1672998636	-0.3143628732	1.170744935	1.057852023	-0.09866353633	0.2270743087	0.1733076728	0.2369057242	0.1516224708	0.1516224708	-0.1260494366	-0.1464669974	3.352914882e-06	0.2074507232	-0.1655696698	-0.1484350436	0.1695412404	0.1695412404	-0.01255743193	-0.1250408787	3.809753261e-06	0.241414676	0.9364481374	-0.8064112041	-0.7024251785	-1.301929608	-0.9673307646	0.5737724162	0.2017534576	0.5045101807	-0.7852398137	0.05809977221	0.6718611133	-0.9992924597	1.642581654	0.1956740538	-4.728776295e-05	5.828994793e-05
0.083333333	-0.1371115959	-0.1673955108	-0.3148842674	1.170839306	1.057580509	-0.0986331718	0.2269096307	0.1732478624	0.2369584362	0.1516182626	0.1516182626	-0.1260761471	-0.146373396	3.404546682e-06	0.2075637994	-0.1656615344	-0.1483137459	0.1695422193	0.1695422193	-0.01249556301	-0.125066816	3.552847799e-06	0.2413362214	0.9369221138	-0.8067959929	-0.7028161019	-1.302352386	-0.9674938864	0.5731462859	0.200680922	0.5057032828	-0.78525199	0.05840540868	0.6718724605	-0.9992162724	1.642608317	0.1956742071	-3.186300793e-05	5.915058437e-05
0.086111111	-0.1373121595	-0.1674767181	-0.315417874	1.170937803	1.057312519	-0.09860170003	0.22674018	0.1731842758	0.2370126373	0.1516128464	0.1516128464	-0.1261017272	-0.1462386788	3.414161845e-06	0.2076824151	-0.165747584	-0.1481966286	0.1695457209	0.1695457209	-0.0124320842	-0.1250929459	3.280686013e-06	0.241258033	0.9374210964	-0.8071752249	-0.7032322525	-1.302815703	-0.9676866605	0.5724149486	0.1995462517	0.5070348588	-0.7852614722	0.05872576946	0.6718843595	-0.9991277991	1.642637914	0.1956739331	-1.469080606e-05	5.907763008e-05
0.088888889	-0.1375169442	-0.1675441368	-0.3159715357	1.171038808	1.057049727	-0.09856688662	0.2265715495	0.173120823	0.2370607409	0.1516059369	0.1516059369	-0.1261262828	-0.1460662015	3.422591166e-06	0.2078049464	-0.1658326722	-0.1480806813	0.1695526093	0.1695526093	-0.01235874268	-0.1251223243	3.029620416e-06	0.2411709944	0.9379371959	-0.8075546523	-0.703692746	-1.303286007	-0.9679291864	0.5716904009	0.1985321335	0.5083737071	-0.7852319198	0.0590604104	0.6719051014	-0.9990412091	1.64267222	0.1956828654	3.171817788e-06	5.841019008e-05
0.091666667	-0.1377268077	-0.1675982976	-0.3165522373	1.171140775	1.056793823	-0.09852666063	0.2264087123	0.1730609019	0.2370957869	0.1515973561	0.1515973561	-0.1261499845	-0.1458587345	3.476290737e-06	0.2079294419	-0.165921072	-0.1479633566	0.1695634238	0.1695634238	-0.0122678778	-0.1251576946	2.807121388e-06	0.2410663272	0.9384625097	-0.8079394992	-0.7042130242	-1.303732412	-0.968230887	0.571075197	0.1977629486	0.5096345375	-0.7851120727	0.05940869284	0.6719423189	-0.9989700011	1.64271309	0.1957099666	2.056180495e-05	5.752624883e-05
